<?xml version="1.0" encoding="iso-8859-1"?>
<!-- Generator: Adobe Illustrator 19.0.0, SVG Export Plug-In . SVG Version: 6.00 Build 0)  -->
<svg version="1.1" id="Layer_1" xmlns="http://www.w3.org/2000/svg" xmlns:xlink="http://www.w3.org/1999/xlink" x="0px" y="0px"
	 viewBox="0 0 512 512" style="enable-background:new 0 0 512 512;" xml:space="preserve">
<g>
	<g>
		<path d="M447.046,236.8c-5.45-54.9-34.025-102.994-75.846-134.409V0H140.8v102.391C98.979,133.806,70.404,181.9,64.954,236.8H38.4
			v38.4h26.554c5.45,54.9,34.025,102.994,75.846,134.409V512h230.4V409.609c41.821-31.415,70.396-79.508,75.846-134.409H473.6v-38.4
			H447.046z M179.2,38.4h153.6v41.592C309.28,69.714,283.309,64,256,64c-27.309,0-53.28,5.714-76.8,15.992V38.4z M332.8,473.6H179.2
			v-41.592C202.72,442.286,228.691,448,256,448s53.28-5.714,76.8-15.992V473.6z M364.612,364.613
			C335.601,393.623,297.028,409.6,256,409.6s-79.601-15.977-108.612-44.987C118.377,335.601,102.4,297.028,102.4,256
			s15.977-79.601,44.988-108.613C176.399,118.377,214.972,102.4,256,102.4s79.601,15.977,108.612,44.987
			C393.623,176.401,409.6,214.972,409.6,256S393.623,335.601,364.612,364.613z"/>
	</g>
</g>
<g>
	<g>
		<polygon points="275.2,236.8 275.2,179.2 236.8,179.2 236.8,275.2 243.2,275.2 275.2,275.2 371.2,275.2 371.2,236.8 		"/>
	</g>
</g>
<g>
</g>
<g>
</g>
<g>
</g>
<g>
</g>
<g>
</g>
<g>
</g>
<g>
</g>
<g>
</g>
<g>
</g>
<g>
</g>
<g>
</g>
<g>
</g>
<g>
</g>
<g>
</g>
<g>
</g>
</svg>
